<?xml version="1.0" encoding="UTF-8" standalone="no"?>
<svg width="561px" height="161px" viewBox="0 0 561 161" version="1.1" xmlns="http://www.w3.org/2000/svg" xmlns:xlink="http://www.w3.org/1999/xlink">
    <!-- Generator: Sketch 3.7.1 (28215) - http://www.bohemiancoding.com/sketch -->
    <title>Slice 1</title>
    <desc>Created with Sketch.</desc>
    <defs></defs>
    <g id="Page-1" stroke="none" stroke-width="1" fill="none" fill-rule="evenodd">
        <g id="figura-logo" fill="#231F20">
            <g id="Group" transform="translate(0.000000, 71.000000)">
                <rect id="Rectangle-path" x="93.893" y="3.843" width="3" height="84.409"></rect>
                <path d="M560.71,88.252 L463.905,88.252 L512.306,0.695 L560.71,88.252 L560.71,88.252 Z M468.95,85.252 L555.665,85.252 L512.307,6.979 L468.95,85.252 L468.95,85.252 Z" id="Shape"></path>
                <g transform="translate(0.000000, 3.000000)">
                    <polygon id="Shape" points="3.213 85.252 0.213 85.252 0.213 0.843 62.719 0.843 62.719 3.843 3.213 3.843"></polygon>
                    <rect id="Rectangle-path" x="1.713" y="44.183" width="61.006" height="3"></rect>
                </g>
                <path d="M171.299,89.754 C159.625,89.754 148.649,85.208 140.393,76.952 C123.352,59.911 123.353,32.183 140.395,15.141 C148.649,6.886 159.626,2.34 171.303,2.34 L171.303,5.34 C160.428,5.34 150.203,9.573 142.516,17.262 C126.644,33.134 126.643,58.959 142.514,74.83 C150.203,82.518 160.426,86.753 171.299,86.753 C182.172,86.753 192.394,82.519 200.082,74.83 C207.412,67.501 211.605,57.858 211.977,47.547 L171.299,47.547 L171.299,44.547 L213.985,44.547 L215.006,45.554 L215.004,46.185 C214.969,57.808 210.422,68.735 202.203,76.952 C193.948,85.208 182.973,89.754 171.299,89.754 L171.299,89.754 Z" id="Shape"></path>
                <path d="M281.199,89.752 C257.099,89.752 237.494,70.145 237.494,46.044 L237.494,3.842 L240.494,3.842 L240.494,46.044 C240.494,68.49 258.754,86.752 281.199,86.752 C303.645,86.752 321.906,68.49 321.906,46.044 L321.906,3.844 L324.906,3.844 L324.906,46.044 C324.906,70.145 305.3,89.752 281.199,89.752 L281.199,89.752 Z" id="Shape"></path>
                <g transform="translate(361.000000, 3.000000)" id="Shape">
                    <path d="M3.254,85.252 L0.254,85.252 L0.254,0.842 L55.859,0.842 C69.05,0.842 79.783,11.574 79.783,24.766 C79.783,37.956 69.051,48.688 55.859,48.688 L3.254,48.688 L3.254,85.252 L3.254,85.252 Z M3.254,45.688 L55.859,45.688 C67.396,45.688 76.783,36.302 76.783,24.766 C76.783,13.229 67.396,3.842 55.859,3.842 L3.254,3.842 L3.254,45.688 L3.254,45.688 Z"></path>
                    <polygon points="73.584 85.252 55.541 48.064 58.26 46.795 77.001 85.252"></polygon>
                </g>
            </g>
            <g id="Group" transform="translate(204.000000, 0.000000)">
                <path d="M42.431,39.036 L0.242,39.036 L21.337,0.223 L42.431,39.036 L42.431,39.036 Z M5.286,36.036 L37.386,36.036 L21.336,6.506 L5.286,36.036 L5.286,36.036 Z" id="Shape"></path>
                <path d="M76.311,4.163 C85.526,4.163 92.997,11.634 92.997,20.849 C92.997,30.066 85.526,37.537 76.311,37.537 C67.096,37.537 59.625,30.066 59.625,20.849 C59.625,11.634 67.096,4.163 76.311,4.163 L76.311,4.163 Z M76.311,1.312 C65.54,1.312 56.776,10.076 56.776,20.848 C56.776,31.62 65.54,40.386 76.311,40.386 C87.082,40.386 95.846,31.62 95.846,20.848 C95.846,10.076 87.082,1.312 76.311,1.312 L76.311,1.312 L76.311,1.312 Z" id="Shape"></path>
                <path d="M150.631,38.663 L114.631,38.663 L114.631,2.663 L150.631,2.663 L150.631,38.663 L150.631,38.663 Z M117.631,35.663 L147.631,35.663 L147.631,5.663 L117.631,5.663 L117.631,35.663 L117.631,35.663 Z" id="Shape"></path>
            </g>
        </g>
    </g>
</svg>